<?xml version="1.0" encoding="iso-8859-1"?>
<!-- Generator: Adobe Illustrator 16.0.0, SVG Export Plug-In . SVG Version: 6.00 Build 0)  -->
<!DOCTYPE svg PUBLIC "-//W3C//DTD SVG 1.1//EN" "http://www.w3.org/Graphics/SVG/1.1/DTD/svg11.dtd">
<svg version="1.1" xmlns="http://www.w3.org/2000/svg" xmlns:xlink="http://www.w3.org/1999/xlink" x="0px" y="0px" width="512px"
	 height="512px" viewBox="0 0 512 512" style="enable-background:new 0 0 512 512;" xml:space="preserve">
<g id="_x33_61_x2C__hand_x2C__magic_x2C__star_x2C__present_x2C__gift">
	<g>
		<path d="M476.863,270.337c-15.6-15.6-40.984-15.6-56.584,0l-79.56,79.56c-5.081-13.153-17.335-22.729-31.892-23.977
			l-163.285-13.996c-19.44-1.663-38.999,4.783-53.638,17.698l-65.104,57.438c-4.326,3.817-4.531,10.494-0.456,14.57l78.822,78.822
			c3.459,3.459,8.946,3.923,12.943,1.023l33.496-24.3l150.304,10.02c20.669,1.383,40.91-6.23,55.552-20.872l119.401-119.402
			C492.464,311.322,492.464,285.938,476.863,270.337z M462.722,312.78L343.32,432.182c-10.563,10.564-25.167,16.043-40.079,15.06
			l-150.554-10.037l-47.54-41.366c-4.167-3.627-10.483-3.187-14.108,0.979c-3.625,4.167-3.187,10.483,0.979,14.108l40.593,35.322
			l-19.336,14.027l-65.26-65.26l57.121-50.396c10.562-9.317,24.67-13.971,38.699-12.769l163.286,13.996
			c10.929,0.936,18.46,11.651,15.452,22.332c-0.98,1.297-1.604,2.779-1.867,4.311c-3.285,5.446-9.301,8.78-15.854,8.508
			l-107.249-4.663c-5.533-0.243-10.186,4.039-10.425,9.556c-0.24,5.518,4.039,10.186,9.556,10.425l107.249,4.663
			c15.319,0.694,29.464-8.043,35.821-21.882l94.618-94.617c7.803-7.802,20.499-7.801,28.3-0.001
			C470.523,292.282,470.523,304.978,462.722,312.78z"/>
		<rect x="48.583" y="298.618" width="20" height="20"/>
		<rect x="68.583" y="278.618" width="20" height="20"/>
		<rect x="48.583" y="258.618" width="20" height="20"/>
		<rect x="68.583" y="238.619" width="20" height="19.999"/>
		<rect x="418.583" y="208.619" width="20" height="20"/>
		<rect x="438.583" y="188.619" width="20" height="20"/>
		<rect x="418.583" y="168.619" width="20" height="20"/>
		<rect x="438.583" y="148.619" width="20" height="20"/>
		<path d="M155.238,166.967c-1.338,4.121,0.128,8.634,3.633,11.181l44.432,32.282l-16.972,52.232
			c-1.338,4.12,0.128,8.634,3.633,11.18c3.505,2.547,8.25,2.547,11.756,0l44.432-32.281l44.432,32.281
			c3.505,2.546,8.251,2.548,11.756,0c3.505-2.546,4.972-7.06,3.633-11.18L289,210.43l44.432-32.282
			c3.505-2.546,4.972-7.06,3.633-11.181c-1.339-4.12-5.179-6.91-9.511-6.91h-54.921l-16.971-52.233
			c-1.339-4.12-5.179-6.91-9.511-6.91c-4.333,0-8.172,2.79-9.511,6.91l-16.971,52.233h-54.92
			C160.417,160.058,156.577,162.847,155.238,166.967z M226.935,180.058c4.332,0,8.172-2.79,9.511-6.91l9.706-29.872l9.706,29.872
			c1.339,4.12,5.179,6.91,9.511,6.91h31.41l-25.411,18.462c-3.505,2.547-4.972,7.061-3.633,11.181l9.706,29.872l-25.411-18.462
			c-3.505-2.546-8.251-2.546-11.756,0l-25.41,18.462l9.706-29.872c1.338-4.12-0.128-8.634-3.633-11.181l-25.411-18.462H226.935z"/>
		<path d="M302.987,82.933l24.937,18.118l-9.524,29.315c-1.339,4.12,0.128,8.634,3.633,11.18c3.506,2.546,8.252,2.546,11.756,0
			l24.936-18.117l24.938,18.118c1.753,1.273,3.815,1.91,5.878,1.91c6.759,0,11.616-6.61,9.511-13.09l-9.525-29.314l24.937-18.118
			c3.505-2.547,4.972-7.061,3.633-11.181s-5.179-6.91-9.511-6.91H377.76l-9.525-29.314c-1.339-4.12-5.179-6.91-9.511-6.91
			s-8.172,2.79-9.511,6.91l-9.524,29.314h-30.823c-4.332,0-8.172,2.79-9.511,6.91S299.482,80.386,302.987,82.933z M346.954,84.843
			c4.332,0,8.172-2.79,9.511-6.91l2.259-6.954l2.26,6.954c1.339,4.12,5.179,6.91,9.511,6.91h7.313l-5.916,4.298
			c-3.505,2.547-4.972,7.061-3.633,11.181l2.26,6.954l-5.916-4.298c-3.506-2.545-8.251-2.547-11.756,0l-5.915,4.297l2.26-6.954
			c1.339-4.12-0.128-8.634-3.633-11.18l-5.916-4.298H346.954z"/>
		<path d="M82.987,82.933l24.937,18.118l-9.525,29.314c-1.338,4.121,0.128,8.634,3.633,11.181c3.505,2.546,8.251,2.546,11.756,0
			l24.937-18.118l24.937,18.118c1.753,1.273,3.815,1.91,5.878,1.91c6.759,0,11.616-6.609,9.511-13.09l-9.525-29.314l24.937-18.118
			c3.505-2.547,4.971-7.061,3.633-11.181c-1.339-4.12-5.179-6.91-9.511-6.91H157.76l-9.525-29.314
			c-1.339-4.12-5.179-6.91-9.511-6.91s-8.172,2.79-9.511,6.91l-9.525,29.314H88.865c-4.332,0-8.172,2.79-9.511,6.91
			C78.016,75.873,79.482,80.386,82.987,82.933z M126.954,84.843c4.332,0,8.172-2.79,9.511-6.91l2.259-6.954l2.259,6.954
			c1.339,4.12,5.179,6.91,9.511,6.91h7.312l-5.916,4.298c-3.505,2.547-4.971,7.06-3.633,11.181l2.26,6.954l-5.916-4.298
			c-3.505-2.546-8.251-2.546-11.756,0l-5.916,4.298l2.26-6.954c1.338-4.121-0.128-8.634-3.633-11.181l-5.916-4.298H126.954z"/>
		<path d="M478.583,448.618h-90c-5.522,0-10,4.478-10,10s4.478,10,10,10h90c5.522,0,10-4.478,10-10S484.105,448.618,478.583,448.618
			z"/>
		<path d="M478.583,418.618h-60c-5.522,0-10,4.478-10,10s4.478,10,10,10h60c5.522,0,10-4.478,10-10S484.105,418.618,478.583,418.618
			z"/>
		<path d="M478.583,388.618h-40c-5.522,0-10,4.478-10,10s4.478,10,10,10h40c5.522,0,10-4.478,10-10S484.105,388.618,478.583,388.618
			z"/>
	</g>
</g>
<g id="Layer_1">
</g>
</svg>
